{"title":"A Charlie Brown Christmas XviD AVI 697Mb","uid":5234500,"size":696417527,"categoryP":"video","categoryS":"tv_shows","magnet":"?xt=urn:btih:4baac5b473d6863cedadde3d44966da2b447cd20&amp;dn=A+Charlie+Brown+Christmas+XviD+AVI+697Mb&amp;tr=udp%3A%2F%2Ftracker.openbittorrent.com%3A80&amp;tr=udp%3A%2F%2Fopen.demonii.com%3A1337&amp;tr=udp%3A%2F%2Ftracker.coppersurfer.tk%3A6969&amp;tr=udp%3A%2F%2Fexodus.desync.com%3A6969","seeders":1,"leechers":0,"uploader":null,"files":4,"time":1261480679,"description":"\nA Charlie Brown Christmas\n=========================\n\nThis is the old standard, perennial favourite Christmas cartoon from the\n1960s, still as good today as it ever was, with two shorts featuring the\nPeanuts characters, Charlie Brown, Linus, Lucy, Snoopy and other assorted\nsorts, all struggling with their own version of Christmas spirit, or not.\n\nGood quality XviD AVI, MD5 file and an MP3 for audio only usage.\n\n----------\n\nGeneral\nFormat                           : AVI\nFile size                        : 631 MiB\nDuration                         : 41mn 33s\nOverall bit rate                 : 2 122 Kbps\n\nVideo\nFormat                           : MPEG-4 Visual\nCodec ID                         : XVID\nDuration                         : 41mn 33s\nBit rate                         : 1 998 Kbps\nWidth                            : 720 pixels\nHeight                           : 480 pixels\nFrame rate                       : 29.970 fps\nStandard                         : NTSC\nResolution                       : 24 bits\nScan type                        : Progressive\nStream size                      : 594 MiB (94%)\nWriting library                  : XviD 50\n\nAudio\nFormat                           : MPEG Audio\nFormat version                   : Version 1\nFormat profile                   : Layer 3\nCodec ID/Hint                    : MP3\nDuration                         : 41mn 33s\nBit rate mode                    : Constant\nBit rate                         : 112 Kbps\nChannel(s)                       : 2 channels\nSampling rate                    : 48.0 KHz\nResolution                       : 16 bits\nStream size                      : 33.3 MiB (5%)\n\n----------\n\nPlease seed as much as you can and remember that others depend upon you,\njust as you depend upon them.\n\nDistribute elsewhere, as much as you please.\n\nOriginal seed will end at 2x.\n\n----\n\nACharlieBrownChristmas.avi\nACharlieBrownChristmas.md5\nACharlieBrownChristmas.mp3\nreadme.nfo\n\n","torrent":{"xt":"urn:btih:4baac5b473d6863cedadde3d44966da2b447cd20","amp;dn":"A+Charlie+Brown+Christmas+XviD+AVI+697Mb","amp;tr":["udp%3A%2F%2Ftracker.openbittorrent.com%3A80","udp%3A%2F%2Fopen.demonii.com%3A1337","udp%3A%2F%2Ftracker.coppersurfer.tk%3A6969","udp%3A%2F%2Fexodus.desync.com%3A6969"],"infoHash":"4baac5b473d6863cedadde3d44966da2b447cd20","infoHashBuffer":{"type":"Buffer","data":[75,170,197,180,115,214,134,60,237,173,222,61,68,150,109,162,180,71,205,32]},"announce":[],"urlList":[]}}